<svg width="80" height="80" xmlns="http://www.w3.org/2000/svg" fill="none">
  <path fill="#4D6BFE" fill-rule="nonzero" d="m68.6128,23.47119c-0.5953,-0.29175 -0.8517,0.26416 -1.1998,0.54663c-0.1191,0.09107 -0.2198,0.20947 -0.3206,0.31885c-0.8701,0.9292 -1.8867,1.53979 -3.2148,1.4668c-1.9417,-0.10938 -3.5995,0.50122 -5.065,1.98632c-0.3114,-1.83129 -1.3463,-2.9248 -2.9217,-3.62622c-0.8242,-0.3645 -1.6577,-0.729 -2.2348,-1.52172c-0.4029,-0.5647 -0.5129,-1.19336 -0.7143,-1.81299c-0.1283,-0.37354 -0.2565,-0.75635 -0.687,-0.82007c-0.4671,-0.07275 -0.6503,0.31885 -0.8335,0.64697c-0.7327,1.33936 -1.0166,2.81543 -0.9892,4.30957c0.0641,3.36206 1.4838,6.04057 4.3048,7.94487c0.3206,0.2187 0.403,0.4372 0.3023,0.7563c-0.1924,0.656 -0.4214,1.2937 -0.6228,1.9497c-0.1283,0.4192 -0.3207,0.5103 -0.7694,0.3279c-1.5479,-0.6467 -2.8852,-1.6035 -4.0667,-2.7605c-2.0058,-1.9407 -3.8193,-4.08179 -6.0815,-5.75831c-0.5313,-0.39184 -1.0625,-0.7561 -1.6121,-1.10254c-2.3081,-2.24121 0.3023,-4.08178 0.9068,-4.30029c0.6319,-0.22778 0.2198,-1.01147 -1.8227,-1.0022c-2.0425,0.00904 -3.9109,0.69239 -6.2922,1.60352c-0.348,0.13672 -0.7145,0.23682 -1.09,0.31885c-2.1615,-0.40992 -4.4055,-0.50122 -6.7502,-0.23682c-4.41469,0.49194 -7.94082,2.57837 -10.53286,6.14087c-3.11413,4.28222 -3.8468,9.14742 -2.94922,14.22242c0.94336,5.3481 3.67273,9.7761 7.86756,13.2385c4.35062,3.5896 9.36062,5.3482 15.07582,5.011c3.4713,-0.2004 7.3364,-0.665 11.6961,-4.355c1.099,0.5467 2.2531,0.7652 4.1674,0.9292c1.4746,0.1367 2.8943,-0.0727 3.9933,-0.3005c1.7219,-0.3645 1.6029,-1.959 0.9801,-2.2505c-5.0466,-2.3506 -3.9385,-1.394 -4.9459,-2.1685c2.5645,-3.0339 6.4297,-6.1865 7.9409,-16.4001c0.119,-0.8108 0.0183,-1.3211 0,-1.9771c-0.0092,-0.4008 0.0824,-0.5556 0.5404,-0.6013c1.2639,-0.1457 2.4912,-0.4919 3.6178,-1.1115c3.2698,-1.7857 4.5886,-4.71953 4.9,-8.23638c0.0459,-0.53759 -0.0091,-1.0935 -0.577,-1.37573zm-28.4938,31.65181c-4.8909,-3.8447 -7.263,-5.1113 -8.2431,-5.0566c-0.9159,0.0547 -0.751,1.1025 -0.5496,1.7859c0.2107,0.6741 0.4855,1.1389 0.8701,1.731c0.2656,0.3918 0.4489,0.9748 -0.2655,1.4123c-1.5754,0.9749 -4.314,-0.3281 -4.4423,-0.3918c-3.1872,-1.877 -5.85249,-4.3553 -7.73018,-7.7444c-1.81347,-3.262 -2.8667,-6.7605 -3.04077,-10.4961c-0.04577,-0.9019 0.21985,-1.221 1.11743,-1.3848c1.18152,-0.2187 2.39966,-0.2644 3.58118,-0.0913c4.99174,0.729 9.24144,2.9612 12.80434,6.4963c2.0333,2.0135 3.572,4.419 5.1566,6.7696c1.6852,2.4963 3.4987,4.8745 5.8068,6.8242c0.8151,0.6833 1.4654,1.2026 2.0882,1.5854c-1.8775,0.2095 -5.01,0.2552 -7.1532,-1.4397zm2.3447,-15.0788c0,-0.4009 0.3206,-0.7197 0.7237,-0.7197c0.0915,0 0.1739,0.018 0.2472,0.0454c0.1008,0.0366 0.1924,0.0913 0.2656,0.1731c0.1283,0.1277 0.2015,0.3098 0.2015,0.5012c0,0.4009 -0.3205,0.7197 -0.7235,0.7197c-0.4031,0 -0.7145,-0.3188 -0.7145,-0.7197zm7.2815,3.7356c-0.4671,0.1914 -0.9342,0.3552 -1.383,0.3735c-0.6961,0.0364 -1.4563,-0.2461 -1.8684,-0.5923c-0.6411,-0.5376 -1.0991,-0.8381 -1.2915,-1.7766c-0.0824,-0.4009 -0.0367,-1.0205 0.0367,-1.3757c0.1648,-0.7654 -0.0184,-1.2573 -0.5587,-1.7039c-0.4397,-0.3645 -0.9984,-0.4646 -1.6121,-0.4646c-0.229,0 -0.4395,-0.1003 -0.5953,-0.1823c-0.2565,-0.1275 -0.467,-0.4463 -0.2656,-0.8382c0.0641,-0.1274 0.3756,-0.4372 0.4488,-0.4919c0.8335,-0.4739 1.7952,-0.3189 2.6836,0.0364c0.8244,0.3371 1.4472,0.9567 2.3447,1.8313c0.9159,1.0568 1.0807,1.3486 1.6028,2.1411c0.4123,0.6196 0.7878,1.2573 1.0442,1.9863c0.1557,0.4556 -0.0458,0.8291 -0.5862,1.0569z"/>
</svg>